<svg width="116" height="116" viewBox="0 0 116 116" fill="none" xmlns="http://www.w3.org/2000/svg">
<circle cx="58" cy="58" r="58" fill="#47F4FF"/>
<path d="M41.1077 43.702H42.5297L39.3977 52H37.9577L34.9157 43.702H36.3557L38.6957 50.038L41.1077 43.702ZM47.8508 43.702V52H46.4828V43.702H47.8508ZM47.1848 40.48C47.6708 40.48 48.0488 40.876 48.0488 41.38C48.0488 41.866 47.6528 42.244 47.1668 42.244C46.6808 42.244 46.3028 41.866 46.3028 41.362C46.3028 40.858 46.6808 40.48 47.1848 40.48ZM60.82 48.292H53.908C53.98 48.994 54.106 49.354 54.448 49.804C54.988 50.542 55.78 50.938 56.68 50.938C57.706 50.938 58.678 50.38 59.164 49.516L60.37 49.966C59.686 51.352 58.264 52.198 56.68 52.198C54.214 52.198 52.45 50.398 52.45 47.878C52.45 45.322 54.196 43.504 56.626 43.504C59.038 43.504 60.838 45.322 60.838 47.752C60.838 47.86 60.838 48.094 60.82 48.292ZM53.926 47.284H59.38C59.326 46.636 59.2 46.276 58.912 45.862C58.39 45.16 57.544 44.728 56.626 44.728C55.708 44.728 54.88 45.16 54.394 45.88C54.142 46.276 54.034 46.618 53.926 47.284ZM74.757 43.702H76.161L73.209 52H71.967L70.059 45.7L68.061 52H66.765L63.921 43.702H65.325L67.449 49.804L69.357 43.702H70.707L72.579 49.804L74.757 43.702ZM27.0463 65.702H28.4143V67.214C29.2063 65.99 30.0523 65.504 31.4383 65.504C33.7423 65.504 35.3443 67.268 35.3443 69.788C35.3443 72.398 33.7423 74.198 31.4383 74.198C30.7903 74.198 30.1963 74.054 29.6203 73.766C29.1163 73.514 28.8643 73.298 28.4143 72.704V77.888H27.0463V65.702ZM31.2043 66.728C29.5483 66.728 28.4143 68.042 28.4143 69.986C28.4143 71.804 29.5123 73.01 31.1503 73.01C32.7883 73.01 33.8863 71.732 33.8863 69.842C33.8863 68.87 33.6523 68.132 33.1663 67.592C32.6803 67.052 31.9423 66.728 31.2043 66.728ZM39.9374 65.702H41.3054V67.106C41.5574 66.512 41.7374 66.26 42.0614 66.008C42.4754 65.684 43.0514 65.504 43.6454 65.504H43.9694V66.89C43.8254 66.872 43.6814 66.872 43.5914 66.872C42.8534 66.872 42.2054 67.214 41.7914 67.826C41.4314 68.348 41.3054 68.834 41.3054 69.788V74H39.9374V65.702ZM51.471 65.504C53.919 65.504 55.665 67.322 55.665 69.878C55.665 72.308 53.793 74.198 51.417 74.198C48.951 74.198 47.223 72.398 47.223 69.842C47.223 67.268 48.951 65.504 51.471 65.504ZM51.471 66.764C49.761 66.764 48.627 68.006 48.627 69.86C48.627 71.696 49.761 72.938 51.453 72.938C53.091 72.938 54.261 71.66 54.261 69.86C54.261 68.006 53.145 66.764 51.471 66.764ZM61.4977 65.702V74.864C61.4977 75.998 61.2997 76.682 60.7957 77.222C60.2917 77.78 59.5537 78.086 58.7077 78.086H58.3477V76.79H58.5457C59.5177 76.754 60.1117 76.034 60.1297 74.864V65.702H61.4977ZM60.8317 62.48C61.3177 62.48 61.6957 62.876 61.6957 63.38C61.6957 63.866 61.2997 64.244 60.8137 64.244C60.3277 64.244 59.9497 63.866 59.9497 63.362C59.9497 62.858 60.3277 62.48 60.8317 62.48ZM74.467 70.292H67.555C67.627 70.994 67.753 71.354 68.095 71.804C68.635 72.542 69.427 72.938 70.327 72.938C71.353 72.938 72.325 72.38 72.811 71.516L74.017 71.966C73.333 73.352 71.911 74.198 70.327 74.198C67.861 74.198 66.097 72.398 66.097 69.878C66.097 67.322 67.843 65.504 70.273 65.504C72.685 65.504 74.485 67.322 74.485 69.752C74.485 69.86 74.485 70.094 74.467 70.292ZM67.573 69.284H73.027C72.973 68.636 72.847 68.276 72.559 67.862C72.037 67.16 71.191 66.728 70.273 66.728C69.355 66.728 68.527 67.16 68.041 67.88C67.789 68.276 67.681 68.618 67.573 69.284ZM84.6021 72.038L85.4481 72.974C84.5121 73.82 83.5941 74.198 82.3881 74.198C80.0121 74.198 78.3201 72.398 78.3201 69.878C78.3201 67.304 80.0301 65.504 82.4601 65.504C83.6481 65.504 84.6201 65.9 85.4841 66.746L84.6021 67.628C83.9721 67.052 83.2701 66.764 82.4961 66.764C80.8581 66.764 79.7241 68.024 79.7241 69.824C79.7241 71.66 80.8581 72.938 82.4781 72.938C83.2881 72.938 83.9361 72.668 84.6021 72.038ZM91.4895 66.908V72.308C91.5075 72.722 91.6155 72.812 92.1195 72.812H92.7495V74H91.4715C90.4995 73.982 90.1215 73.622 90.1215 72.704V66.908H88.9695V65.702H90.1215V63.092H91.4895V65.702H92.7495V66.908H91.4895Z" fill="black"/>
</svg>
